# xmcd CD database file
#
# Track frame offsets:
#	150
#	16399
#	29138
#
# Disc length: 571 seconds
#
# Revision: 0
# Processed by: cddbd v1.5.1PL0 Copyright (c) Steve Scherf et al.
# Submitted via: CDex 1.51
#
DISCID=20023903
DTITLE=平川地一丁目 - 十六度目の夏
DYEAR=2005
DGENRE=Pop
TTITLE0=十六度目の夏
TTITLE1=背広姿のエライ人
TTITLE2=	3:03	平川地一丁目	十六度目の夏	Pop
EXTD=YEAR: 2005
EXTT0=
EXTT1=
EXTT2=
PLAYORDER=
